<svg id="svg-icon" width="60px" height="60px" viewBox="0 0 14 14" id="svg2" fill="#000000">

  <g id="SVGRepo_iconCarrier">
    <rect width="14" height="14" x="0" y="0" id="canvas" />
    <path fill="#fff" fill-opacity="1" stroke="none" d="M 0,0 0,1 1,1 2,11 12,11 12,10 3,10 2.875,9 12,9 14,3 2.34375,3 2,0 z m 3,12 c -0.552285,0 -1,0.447715 -1,1 0,0.552285 0.447715,1 1,1 0.552285,0 1,-0.447715 1,-1 0,-0.552285 -0.447715,-1 -1,-1 z m 8,0 c -0.552285,0 -1,0.447715 -1,1 0,0.552285 0.447715,1 1,1 0.552285,0 1,-0.447715 1,-1 0,-0.552285 -0.447715,-1 -1,-1 z" id="supermarket" /> 
  </g>
</svg>